<svg xmlns="http://www.w3.org/2000/svg" width="1200" height="720" viewBox="0 0 1200 720">
<rect x="0" y="0" width="100%" height="100%" fill="#ffffff"/>
<style>text{font-family:Arial, Helvetica, sans-serif;} .tiny{font-size:10px;} .small{font-size:12px;} .label{font-size:13px;font-weight:600;} .title{font-size:24px;font-weight:700;} .subtitle{font-size:14px;fill:#555;} .legend{font-size:12px;fill:#333;}</style>
<defs><marker id="arrow" markerWidth="10" markerHeight="10" refX="8" refY="3" orient="auto" markerUnits="strokeWidth"><path d="M0,0 L0,6 L9,3 z" fill="#777"/></marker></defs>
<text x="40" y="44" class="title" fill="#1f2937">Causal DAG</text>
<text x="40" y="68" class="subtitle">개선 경로와 질서 통제 경로, 그리고 신문 맥락 Z의 보정 역할</text>
<line x1="590.0" y1="145.0" x2="170.0" y2="360.0" stroke="#7B61FF" stroke-width="1.6" opacity="0.55" stroke-dasharray="6,5" marker-end="url(#arrow)"/>
<line x1="590.0" y1="145.0" x2="470.0" y2="265.0" stroke="#7B61FF" stroke-width="1.6" opacity="0.55" stroke-dasharray="6,5" marker-end="url(#arrow)"/>
<line x1="590.0" y1="145.0" x2="840.0" y2="265.0" stroke="#7B61FF" stroke-width="1.6" opacity="0.55" stroke-dasharray="6,5" marker-end="url(#arrow)"/>
<line x1="590.0" y1="145.0" x2="470.0" y2="465.0" stroke="#7B61FF" stroke-width="1.6" opacity="0.55" stroke-dasharray="6,5" marker-end="url(#arrow)"/>
<line x1="590.0" y1="145.0" x2="840.0" y2="465.0" stroke="#7B61FF" stroke-width="1.6" opacity="0.55" stroke-dasharray="6,5" marker-end="url(#arrow)"/>
<line x1="170.0" y1="360.0" x2="470.0" y2="265.0" stroke="#222222" stroke-width="2.0" opacity="0.85" marker-end="url(#arrow)"/>
<line x1="470.0" y1="265.0" x2="840.0" y2="265.0" stroke="#222222" stroke-width="2.0" opacity="0.85" marker-end="url(#arrow)"/>
<line x1="170.0" y1="360.0" x2="470.0" y2="465.0" stroke="#222222" stroke-width="2.0" opacity="0.85" marker-end="url(#arrow)"/>
<line x1="470.0" y1="465.0" x2="840.0" y2="465.0" stroke="#222222" stroke-width="2.0" opacity="0.85" marker-end="url(#arrow)"/>
<rect x="495.0" y="115.0" width="190.0" height="60.0" rx="16" fill="#97C47F" stroke="#4B5563" stroke-width="1.2"/>
<text x="590.0" y="149.0" text-anchor="middle" font-size="12" font-weight="600" fill="#222">Z · Contextual confounders</text>
<rect x="75.0" y="330.0" width="190.0" height="60.0" rx="16" fill="#8DB3E2" stroke="#4B5563" stroke-width="1.2"/>
<text x="170.0" y="364.0" text-anchor="middle" font-size="12" font-weight="600" fill="#222">X · Protest pressure fram…</text>
<rect x="375.0" y="235.0" width="190.0" height="60.0" rx="16" fill="#C6A0F6" stroke="#4B5563" stroke-width="1.2"/>
<text x="470.0" y="269.0" text-anchor="middle" font-size="12" font-weight="600" fill="#222">M1 · Demand-legitimacy fra…</text>
<rect x="745.0" y="235.0" width="190.0" height="60.0" rx="16" fill="#F4B183" stroke="#4B5563" stroke-width="1.2"/>
<text x="840.0" y="269.0" text-anchor="middle" font-size="12" font-weight="600" fill="#222">Y1 · Improvement response</text>
<rect x="375.0" y="435.0" width="190.0" height="60.0" rx="16" fill="#C6A0F6" stroke="#4B5563" stroke-width="1.2"/>
<text x="470.0" y="469.0" text-anchor="middle" font-size="12" font-weight="600" fill="#222">M2 · Disorder/conflict fra…</text>
<rect x="745.0" y="435.0" width="190.0" height="60.0" rx="16" fill="#F4B183" stroke="#4B5563" stroke-width="1.2"/>
<text x="840.0" y="469.0" text-anchor="middle" font-size="12" font-weight="600" fill="#222">Y2 · Order-control response</text>
<text x="70" y="635" class="subtitle">실선: X에서 outcome으로 이어지는 해석 경로 / 점선: Z가 X·M·Y에 영향을 줄 수 있는 confounding path</text>
</svg>