<svg xmlns="http://www.w3.org/2000/svg" width="1500" height="420" viewBox="0 0 1500 420">
<rect x="0" y="0" width="100%" height="100%" fill="#ffffff"/>
<style>text{font-family:Arial, Helvetica, sans-serif;} .tiny{font-size:10px;} .small{font-size:12px;} .label{font-size:13px;font-weight:600;} .title{font-size:24px;font-weight:700;} .subtitle{font-size:14px;fill:#555;} .legend{font-size:12px;fill:#333;}</style>
<defs><marker id="arrow" markerWidth="10" markerHeight="10" refX="8" refY="3" orient="auto" markerUnits="strokeWidth"><path d="M0,0 L0,6 L9,3 z" fill="#777"/></marker></defs>
<text x="40" y="44" class="title" fill="#1f2937">데이터 파이프라인</text>
<text x="40" y="68" class="subtitle">원문 OCR에서 KG/DAG와 demo adjustment까지 이어지는 분석 흐름</text>
<rect x="70.0" y="170.0" width="150.0" height="82.0" rx="14" fill="#E7F0FF" stroke="#4B5563" stroke-width="1.2"/>
<text x="145.0" y="215.7" text-anchor="middle" font-size="14" font-weight="600" fill="#222">원문 OCR</text>
<text x="145.0" y="228.0" text-anchor="middle" font-size="11" fill="#555">8 issues
90 pages</text>
<line x1="220.0" y1="211.0" x2="254.0" y2="211.0" stroke="#4B5563" stroke-width="2.0" opacity="0.85" marker-end="url(#arrow)"/>
<rect x="264.0" y="170.0" width="150.0" height="82.0" rx="14" fill="#E8F7EE" stroke="#4B5563" stroke-width="1.2"/>
<text x="339.0" y="215.7" text-anchor="middle" font-size="14" font-weight="600" fill="#222">정제</text>
<text x="339.0" y="228.0" text-anchor="middle" font-size="11" fill="#555">cleaned OCR</text>
<line x1="414.0" y1="211.0" x2="448.0" y2="211.0" stroke="#4B5563" stroke-width="2.0" opacity="0.85" marker-end="url(#arrow)"/>
<rect x="458.0" y="170.0" width="150.0" height="82.0" rx="14" fill="#FFF2CC" stroke="#4B5563" stroke-width="1.2"/>
<text x="533.0" y="215.7" text-anchor="middle" font-size="14" font-weight="600" fill="#222">프레이밍 추출</text>
<text x="533.0" y="228.0" text-anchor="middle" font-size="11" fill="#555">26 units</text>
<line x1="608.0" y1="211.0" x2="642.0" y2="211.0" stroke="#4B5563" stroke-width="2.0" opacity="0.85" marker-end="url(#arrow)"/>
<rect x="652.0" y="170.0" width="150.0" height="82.0" rx="14" fill="#EADCF8" stroke="#4B5563" stroke-width="1.2"/>
<text x="727.0" y="215.7" text-anchor="middle" font-size="14" font-weight="600" fill="#222">KG</text>
<text x="727.0" y="228.0" text-anchor="middle" font-size="11" fill="#555">nodes/edges</text>
<line x1="802.0" y1="211.0" x2="836.0" y2="211.0" stroke="#4B5563" stroke-width="2.0" opacity="0.85" marker-end="url(#arrow)"/>
<rect x="846.0" y="170.0" width="150.0" height="82.0" rx="14" fill="#FCE4D6" stroke="#4B5563" stroke-width="1.2"/>
<text x="921.0" y="215.7" text-anchor="middle" font-size="14" font-weight="600" fill="#222">DAG</text>
<text x="921.0" y="228.0" text-anchor="middle" font-size="11" fill="#555">X, M, Y, Z</text>
<line x1="996.0" y1="211.0" x2="1030.0" y2="211.0" stroke="#4B5563" stroke-width="2.0" opacity="0.85" marker-end="url(#arrow)"/>
<rect x="1040.0" y="170.0" width="150.0" height="82.0" rx="14" fill="#DDEBF7" stroke="#4B5563" stroke-width="1.2"/>
<text x="1115.0" y="215.7" text-anchor="middle" font-size="14" font-weight="600" fill="#222">Backdoor</text>
<text x="1115.0" y="228.0" text-anchor="middle" font-size="11" fill="#555">Z adjustment</text>
<line x1="1190.0" y1="211.0" x2="1224.0" y2="211.0" stroke="#4B5563" stroke-width="2.0" opacity="0.85" marker-end="url(#arrow)"/>
<rect x="1234.0" y="170.0" width="150.0" height="82.0" rx="14" fill="#E2F0D9" stroke="#4B5563" stroke-width="1.2"/>
<text x="1309.0" y="215.7" text-anchor="middle" font-size="14" font-weight="600" fill="#222">해석</text>
<text x="1309.0" y="228.0" text-anchor="middle" font-size="11" fill="#555">framing effect</text>
<text x="70" y="330" class="subtitle">핵심: 실제 역사 전체의 ATE가 아니라, 신문 프레이밍 안에서 Z 보정 전후 해석이 어떻게 달라지는지 확인한다.</text>
</svg>