<svg xmlns="http://www.w3.org/2000/svg" width="1040" height="540" viewBox="0 0 1040 540" font-family="'Noto Sans CJK KR','Segoe UI',sans-serif">
<defs><marker id="arrow" markerWidth="12" markerHeight="12" refX="9" refY="4" orient="auto" markerUnits="userSpaceOnUse"><path d="M0,0 L0,8 L10,4 z" fill="#495057"/></marker><marker id="arrowd" markerWidth="12" markerHeight="12" refX="9" refY="4" orient="auto" markerUnits="userSpaceOnUse"><path d="M0,0 L0,8 L10,4 z" fill="#868e96"/></marker><marker id="arroww" markerWidth="13" markerHeight="13" refX="9" refY="4" orient="auto" markerUnits="userSpaceOnUse"><path d="M0,0 L0,8 L10,4 z" fill="#ffffff"/></marker><filter id="shadow" x="-20%" y="-20%" width="140%" height="140%"><feDropShadow dx="0" dy="2" stdDeviation="3" flood-color="#000" flood-opacity="0.14"/></filter></defs>
<rect width="1040" height="540" fill="#fbfcfe"/>
<text x="520.0" y="40" text-anchor="middle" font-size="23" font-weight="700" fill="#212529" letter-spacing="0.3">Demo Backdoor 보정 — 정직한 결과</text>
<text x="520.0" y="64" text-anchor="middle" font-size="13.5" fill="#868e96">실제 코퍼스에서 코딩한 합성 시연. 역사적 효과 아님.</text>
<text x="280" y="100" text-anchor="middle" font-size="14.5" font-weight="700" fill="#343a40">A. 단순 vs 맥락보정 ATE</text>
<line x1="90" y1="360.0" x2="470" y2="360.0" stroke="#e9ecef"/>
<text x="80" y="364.0" text-anchor="end" font-size="10.5" fill="#adb5bd">0.00</text>
<line x1="90" y1="302.5" x2="470" y2="302.5" stroke="#e9ecef"/>
<text x="80" y="306.5" text-anchor="end" font-size="10.5" fill="#adb5bd">0.05</text>
<line x1="90" y1="245.0" x2="470" y2="245.0" stroke="#e9ecef"/>
<text x="80" y="249.0" text-anchor="end" font-size="10.5" fill="#adb5bd">0.10</text>
<line x1="90" y1="187.5" x2="470" y2="187.5" stroke="#e9ecef"/>
<text x="80" y="191.5" text-anchor="end" font-size="10.5" fill="#adb5bd">0.15</text>
<line x1="90" y1="130.0" x2="470" y2="130.0" stroke="#e9ecef"/>
<text x="80" y="134.0" text-anchor="end" font-size="10.5" fill="#adb5bd">0.20</text>
<line x1="90" y1="360" x2="470" y2="360" stroke="#495057" stroke-width="1.5"/>
<rect x="101.0" y="334.7" width="78" height="25.299999999999997" rx="4" fill="#d3f9d8" stroke="#2b8a3e" stroke-width="2"/>
<text x="140.0" y="326.7" text-anchor="middle" font-size="12.5" font-weight="700" fill="#2b8a3e">+0.022</text>
<text x="140.0" y="376" text-anchor="middle" font-size="11" fill="#495057">단순</text>
<rect x="191.0" y="243.85" width="78" height="116.15" rx="4" fill="#2b8a3e" stroke="#2b8a3e" stroke-width="2"/>
<text x="230.0" y="235.85" text-anchor="middle" font-size="12.5" font-weight="700" fill="#2b8a3e">+0.101</text>
<text x="230.0" y="376" text-anchor="middle" font-size="11" fill="#495057">보정</text>
<text x="185.0" y="400" text-anchor="middle" font-size="13" font-weight="700" fill="#2b8a3e">Y1 개선</text>
<rect x="291.0" y="135.75" width="78" height="224.25" rx="4" fill="#ffe3e3" stroke="#c92a2a" stroke-width="2"/>
<text x="330.0" y="127.75" text-anchor="middle" font-size="12.5" font-weight="700" fill="#c92a2a">+0.195</text>
<text x="330.0" y="376" text-anchor="middle" font-size="11" fill="#495057">단순</text>
<rect x="381.0" y="220.85" width="78" height="139.15" rx="4" fill="#c92a2a" stroke="#c92a2a" stroke-width="2"/>
<text x="420.0" y="212.85" text-anchor="middle" font-size="12.5" font-weight="700" fill="#c92a2a">+0.121</text>
<text x="420.0" y="376" text-anchor="middle" font-size="11" fill="#495057">보정</text>
<text x="375.0" y="400" text-anchor="middle" font-size="13" font-weight="700" fill="#c92a2a">Y2 질서통제</text>
<text x="790" y="100" text-anchor="middle" font-size="14.5" font-weight="700" fill="#343a40">B. 맥락(Z)별 Y1 시위–개선 연관</text>
<line x1="600" y1="417.5" x2="980" y2="417.5" stroke="#e9ecef"/>
<text x="590" y="421.5" text-anchor="end" font-size="10.5" fill="#adb5bd">-0.05</text>
<line x1="600" y1="360.0" x2="980" y2="360.0" stroke="#e9ecef"/>
<text x="590" y="364.0" text-anchor="end" font-size="10.5" fill="#adb5bd">+0.00</text>
<line x1="600" y1="302.5" x2="980" y2="302.5" stroke="#e9ecef"/>
<text x="590" y="306.5" text-anchor="end" font-size="10.5" fill="#adb5bd">+0.05</text>
<line x1="600" y1="245.0" x2="980" y2="245.0" stroke="#e9ecef"/>
<text x="590" y="249.0" text-anchor="end" font-size="10.5" fill="#adb5bd">+0.10</text>
<line x1="600" y1="187.5" x2="980" y2="187.5" stroke="#e9ecef"/>
<text x="590" y="191.5" text-anchor="end" font-size="10.5" fill="#adb5bd">+0.15</text>
<line x1="600" y1="360" x2="980" y2="360" stroke="#495057" stroke-width="1.5"/>
<rect x="628.3333333333334" y="360" width="70" height="37.95" rx="4" fill="#ffe3e3" stroke="#c92a2a" stroke-width="2"/>
<text x="663.3333333333334" y="413.95" text-anchor="middle" font-size="12" font-weight="700" fill="#c92a2a">-0.033</text>
<text x="663.3333333333334" y="390" text-anchor="middle" font-size="10.5" fill="#495057">질서중심</text>
<text x="663.3333333333334" y="404" text-anchor="middle" font-size="10.5" fill="#495057">(폭동위주)</text>
<rect x="755.0" y="192.10000000000002" width="70" height="167.89999999999998" rx="4" fill="#d3f9d8" stroke="#2b8a3e" stroke-width="2"/>
<text x="790.0" y="184.10000000000002" text-anchor="middle" font-size="12" font-weight="700" fill="#2b8a3e">+0.146</text>
<text x="790.0" y="390" text-anchor="middle" font-size="10.5" fill="#495057">혼합</text>
<text x="790.0" y="404" text-anchor="middle" font-size="10.5" fill="#495057">(지역지)</text>
<rect x="881.6666666666667" y="192.10000000000002" width="70" height="167.89999999999998" rx="4" fill="#d3f9d8" stroke="#2b8a3e" stroke-width="2"/>
<text x="916.6666666666667" y="184.10000000000002" text-anchor="middle" font-size="12" font-weight="700" fill="#2b8a3e">+0.146</text>
<text x="916.6666666666667" y="390" text-anchor="middle" font-size="10.5" fill="#495057">제도중심</text>
<text x="916.6666666666667" y="404" text-anchor="middle" font-size="10.5" fill="#495057">(DC/의회)</text>
<rect x="60" y="452" width="920" height="62" rx="10" fill="#fff" stroke="#dee2e6"/>
<text x="74" y="476" font-size="12" fill="#343a40" font-weight="600">단순 시위–개선 연관은 사실상 0 (+0.022); 맥락 Z 보정 후에야 약한 연관(+0.101)이 나타난다.</text>
<text x="74" y="498" font-size="12" fill="#495057">폭동위주 맥락에선 오히려 음수(–0.033) — 더 많은 시위 프레이밍, 더 적은 개선 프레이밍 — 단순한 “시위 → 진보” 서사를 복잡하게 만든다.</text>
</svg>