<svg xmlns="http://www.w3.org/2000/svg" width="1300" height="650" viewBox="0 0 1300 650">
<rect x="0" y="0" width="100%" height="100%" fill="#ffffff"/>
<style>text{font-family:Arial, Helvetica, sans-serif;} .tiny{font-size:10px;} .small{font-size:12px;} .label{font-size:13px;font-weight:600;} .title{font-size:24px;font-weight:700;} .subtitle{font-size:14px;fill:#555;} .legend{font-size:12px;fill:#333;}</style>
<defs><marker id="arrow" markerWidth="10" markerHeight="10" refX="8" refY="3" orient="auto" markerUnits="strokeWidth"><path d="M0,0 L0,6 L9,3 z" fill="#777"/></marker></defs>
<text x="40" y="44" class="title" fill="#1f2937">Demo-coded data cell counts</text>
<text x="40" y="68" class="subtitle">Z 맥락별 X=1/X=0 비교 단위와 Y1/Y2 count</text>
<line x1="90" y1="540.0" x2="1240" y2="540.0" stroke="#555" stroke-width="1.2"/>
<line x1="90" y1="540.0" x2="1240" y2="540.0" stroke="#eee" stroke-width="1"/>
<text x="78" y="544.0" text-anchor="end" font-size="11" fill="#555">0.00</text>
<line x1="90" y1="435.0" x2="1240" y2="435.0" stroke="#eee" stroke-width="1"/>
<text x="78" y="439.0" text-anchor="end" font-size="11" fill="#555">12.65</text>
<line x1="90" y1="330.0" x2="1240" y2="330.0" stroke="#eee" stroke-width="1"/>
<text x="78" y="334.0" text-anchor="end" font-size="11" fill="#555">25.30</text>
<line x1="90" y1="225.0" x2="1240" y2="225.0" stroke="#eee" stroke-width="1"/>
<text x="78" y="229.0" text-anchor="end" font-size="11" fill="#555">37.95</text>
<line x1="90" y1="120.0" x2="1240" y2="120.0" stroke="#eee" stroke-width="1"/>
<text x="78" y="124.0" text-anchor="end" font-size="11" fill="#555">50.60</text>
<rect x="124.5" y="291.0" width="33.5" height="249.0" rx="4" fill="#79A7D3" opacity="0.90"/>
<text x="141.3" y="284.0" text-anchor="middle" font-size="10" fill="#333">30</text>
<rect x="165.4" y="473.6" width="33.5" height="66.4" rx="4" fill="#F4A261" opacity="0.90"/>
<text x="182.2" y="466.6" text-anchor="middle" font-size="10" fill="#333">8</text>
<rect x="206.3" y="340.8" width="33.5" height="199.2" rx="4" fill="#8BCB88" opacity="0.90"/>
<text x="223.0" y="333.8" text-anchor="middle" font-size="10" fill="#333">24</text>
<text x="185.8" y="578" text-anchor="middle" font-size="12" fill="#333">order_focused
X=1</text>
<rect x="316.2" y="457.0" width="33.5" height="83.0" rx="4" fill="#79A7D3" opacity="0.90"/>
<text x="332.9" y="450.0" text-anchor="middle" font-size="10" fill="#333">10</text>
<rect x="357.1" y="515.1" width="33.5" height="24.9" rx="4" fill="#F4A261" opacity="0.90"/>
<text x="373.8" y="508.1" text-anchor="middle" font-size="10" fill="#333">3</text>
<rect x="397.9" y="490.2" width="33.5" height="49.8" rx="4" fill="#8BCB88" opacity="0.90"/>
<text x="414.7" y="483.2" text-anchor="middle" font-size="10" fill="#333">6</text>
<text x="377.5" y="578" text-anchor="middle" font-size="12" fill="#333">order_focused
X=0</text>
<rect x="507.8" y="174.8" width="33.5" height="365.2" rx="4" fill="#79A7D3" opacity="0.90"/>
<text x="524.6" y="167.8" text-anchor="middle" font-size="10" fill="#333">44</text>
<rect x="548.7" y="324.2" width="33.5" height="215.8" rx="4" fill="#F4A261" opacity="0.90"/>
<text x="565.5" y="317.2" text-anchor="middle" font-size="10" fill="#333">26</text>
<rect x="589.6" y="357.4" width="33.5" height="182.6" rx="4" fill="#8BCB88" opacity="0.90"/>
<text x="606.4" y="350.4" text-anchor="middle" font-size="10" fill="#333">22</text>
<text x="569.2" y="578" text-anchor="middle" font-size="12" fill="#333">mixed
X=1</text>
<rect x="699.5" y="241.2" width="33.5" height="298.8" rx="4" fill="#79A7D3" opacity="0.90"/>
<text x="716.3" y="234.2" text-anchor="middle" font-size="10" fill="#333">36</text>
<rect x="740.4" y="407.2" width="33.5" height="132.8" rx="4" fill="#F4A261" opacity="0.90"/>
<text x="757.2" y="400.2" text-anchor="middle" font-size="10" fill="#333">16</text>
<rect x="781.3" y="423.8" width="33.5" height="116.2" rx="4" fill="#8BCB88" opacity="0.90"/>
<text x="798.0" y="416.8" text-anchor="middle" font-size="10" fill="#333">14</text>
<text x="760.8" y="578" text-anchor="middle" font-size="12" fill="#333">mixed
X=0</text>
<rect x="891.2" y="407.2" width="33.5" height="132.8" rx="4" fill="#79A7D3" opacity="0.90"/>
<text x="907.9" y="400.2" text-anchor="middle" font-size="10" fill="#333">16</text>
<rect x="932.1" y="432.1" width="33.5" height="107.9" rx="4" fill="#F4A261" opacity="0.90"/>
<text x="948.8" y="425.1" text-anchor="middle" font-size="10" fill="#333">13</text>
<rect x="972.9" y="498.5" width="33.5" height="41.5" rx="4" fill="#8BCB88" opacity="0.90"/>
<text x="989.7" y="491.5" text-anchor="middle" font-size="10" fill="#333">5</text>
<text x="952.5" y="578" text-anchor="middle" font-size="12" fill="#333">institutional
X=1</text>
<rect x="1082.8" y="340.8" width="33.5" height="199.2" rx="4" fill="#79A7D3" opacity="0.90"/>
<text x="1099.6" y="333.8" text-anchor="middle" font-size="10" fill="#333">24</text>
<rect x="1123.7" y="407.2" width="33.5" height="132.8" rx="4" fill="#F4A261" opacity="0.90"/>
<text x="1140.5" y="400.2" text-anchor="middle" font-size="10" fill="#333">16</text>
<rect x="1164.6" y="490.2" width="33.5" height="49.8" rx="4" fill="#8BCB88" opacity="0.90"/>
<text x="1181.4" y="483.2" text-anchor="middle" font-size="10" fill="#333">6</text>
<text x="1144.2" y="578" text-anchor="middle" font-size="12" fill="#333">institutional
X=0</text>
<rect x="90" y="603" width="14" height="14" rx="3" fill="#79A7D3"/>
<text x="111" y="615" class="legend">n units</text>
<rect x="270" y="603" width="14" height="14" rx="3" fill="#F4A261"/>
<text x="291" y="615" class="legend">Y1 count</text>
<rect x="450" y="603" width="14" height="14" rx="3" fill="#8BCB88"/>
<text x="471" y="615" class="legend">Y2 count</text>
<text x="90" y="632" font-size="11" fill="#666">Y-axis: count</text>
</svg>