<svg xmlns="http://www.w3.org/2000/svg" width="1040" height="470" viewBox="0 0 1040 470" font-family="'Noto Sans CJK KR','Segoe UI',sans-serif">
<defs><marker id="arrow" markerWidth="12" markerHeight="12" refX="9" refY="4" orient="auto" markerUnits="userSpaceOnUse"><path d="M0,0 L0,8 L10,4 z" fill="#495057"/></marker><marker id="arrowd" markerWidth="12" markerHeight="12" refX="9" refY="4" orient="auto" markerUnits="userSpaceOnUse"><path d="M0,0 L0,8 L10,4 z" fill="#868e96"/></marker><marker id="arroww" markerWidth="13" markerHeight="13" refX="9" refY="4" orient="auto" markerUnits="userSpaceOnUse"><path d="M0,0 L0,8 L10,4 z" fill="#ffffff"/></marker><filter id="shadow" x="-20%" y="-20%" width="140%" height="140%"><feDropShadow dx="0" dy="2" stdDeviation="3" flood-color="#000" flood-opacity="0.14"/></filter></defs>
<rect width="1040" height="470" fill="#fbfcfe"/>
<text x="520.0" y="40" text-anchor="middle" font-size="23" font-weight="700" fill="#212529" letter-spacing="0.3">지식 그래프 스키마</text>
<text x="520.0" y="64" text-anchor="middle" font-size="13.5" fill="#868e96">모든 인과 주장은 신문 호에서 실제 OCR 인용까지 추적된다</text>
<line x1="193.0" y1="150" x2="227.0" y2="150" stroke="#495057" stroke-width="2.2" marker-end="url(#arrow)"/><text x="210.0" y="114" text-anchor="middle" font-size="11" fill="#495057" font-style="italic">CONTAINS</text>
<line x1="383.0" y1="150" x2="442.0" y2="150" stroke="#495057" stroke-width="2.2" marker-end="url(#arrow)"/><text x="412.5" y="114" text-anchor="middle" font-size="11" fill="#495057" font-style="italic">HAS_EXTRACTION</text>
<line x1="598.0" y1="150" x2="682.0" y2="225" stroke="#495057" stroke-width="2.2" marker-end="url(#arrow)"/><text x="640.0" y="177.5" text-anchor="middle" font-size="11" fill="#495057" font-style="italic">SUPPORTED_BY</text>
<line x1="520" y1="272.0" x2="520" y2="178.0" stroke="#495057" stroke-width="2.2" marker-end="url(#arrow)"/><text x="520.0" y="215.0" text-anchor="middle" font-size="11" fill="#495057" font-style="italic">REPRESENTED_AS</text>
<path d="M598.0,300 Q710.0,227.5 682.0,225" fill="none" stroke="#495057" stroke-width="2.2" marker-end="url(#arrow)"/><text x="640.0" y="252.5" text-anchor="middle" font-size="11" fill="#495057" font-style="italic">EVIDENCE</text>
<path d="M383.0,150 Q470.0,75.0 857.0,150" fill="none" stroke="#495057" stroke-width="2.2" marker-end="url(#arrow)"/><text x="620.0" y="114" text-anchor="middle" font-size="11" fill="#495057" font-style="italic">DERIVED_FROM</text>
<rect x="37.0" y="122.0" width="156" height="56" rx="12" fill="#d0ebff" stroke="#1864ab" stroke-width="2.5" filter="url(#shadow)"/><text x="115" y="155" text-anchor="middle" font-size="13" font-weight="700" fill="#1864ab">Issue</text>
<rect x="227.0" y="122.0" width="156" height="56" rx="12" fill="#d0ebff" stroke="#1864ab" stroke-width="2.5" filter="url(#shadow)"/><text x="305" y="155" text-anchor="middle" font-size="13" font-weight="700" fill="#1864ab">Article</text>
<rect x="442.0" y="122.0" width="156" height="56" rx="12" fill="#e5dbff" stroke="#5f3dc4" stroke-width="2.5" filter="url(#shadow)"/><text x="520" y="155" text-anchor="middle" font-size="13" font-weight="700" fill="#5f3dc4">Extraction</text>
<rect x="442.0" y="272.0" width="156" height="56" rx="12" fill="#ffdeeb" stroke="#a61e4d" stroke-width="2.5" filter="url(#shadow)"/><text x="520" y="305" text-anchor="middle" font-size="13" font-weight="700" fill="#a61e4d">CausalAssertion</text>
<rect x="682.0" y="197.0" width="156" height="56" rx="12" fill="#d3f9d8" stroke="#2b8a3e" stroke-width="2.5" filter="url(#shadow)"/><text x="760" y="230" text-anchor="middle" font-size="13" font-weight="700" fill="#2b8a3e">SupportingQuote</text>
<rect x="857.0" y="122.0" width="156" height="56" rx="12" fill="#f1f3f5" stroke="#868e96" stroke-width="2.5" filter="url(#shadow)"/><text x="935" y="155" text-anchor="middle" font-size="13" font-weight="700" fill="#868e96">SourceURL</text>
<text x="520" y="410" text-anchor="middle" font-size="12.5" fill="#868e96">출처 사슬: SourceURL ← Article → Extraction → SupportingQuote; 각 인과 주장(CausalAssertion)은 노드화되어 근거와 연결된다.</text>
</svg>