<svg xmlns="http://www.w3.org/2000/svg" width="1050" height="620" viewBox="0 0 1050 620">
<rect x="0" y="0" width="100%" height="100%" fill="#ffffff"/>
<style>text{font-family:Arial, Helvetica, sans-serif;} .tiny{font-size:10px;} .small{font-size:12px;} .label{font-size:13px;font-weight:600;} .title{font-size:24px;font-weight:700;} .subtitle{font-size:14px;fill:#555;} .legend{font-size:12px;fill:#333;}</style>
<defs><marker id="arrow" markerWidth="10" markerHeight="10" refX="8" refY="3" orient="auto" markerUnits="strokeWidth"><path d="M0,0 L0,6 L9,3 z" fill="#777"/></marker></defs>
<text x="40" y="44" class="title" fill="#1f2937">Real-corpus framing distribution</text>
<text x="40" y="68" class="subtitle">실제 26개 extraction에서 관찰한 Y1/Y2 분포</text>
<line x1="90" y1="510.0" x2="990" y2="510.0" stroke="#555" stroke-width="1.2"/>
<line x1="90" y1="510.0" x2="990" y2="510.0" stroke="#eee" stroke-width="1"/>
<text x="78" y="514.0" text-anchor="end" font-size="11" fill="#555">0.00</text>
<line x1="90" y1="412.5" x2="990" y2="412.5" stroke="#eee" stroke-width="1"/>
<text x="78" y="416.5" text-anchor="end" font-size="11" fill="#555">2.01</text>
<line x1="90" y1="315.0" x2="990" y2="315.0" stroke="#eee" stroke-width="1"/>
<text x="78" y="319.0" text-anchor="end" font-size="11" fill="#555">4.02</text>
<line x1="90" y1="217.5" x2="990" y2="217.5" stroke="#eee" stroke-width="1"/>
<text x="78" y="221.5" text-anchor="end" font-size="11" fill="#555">6.04</text>
<line x1="90" y1="120.0" x2="990" y2="120.0" stroke="#eee" stroke-width="1"/>
<text x="78" y="124.0" text-anchor="end" font-size="11" fill="#555">8.05</text>
<rect x="144.0" y="510.0" width="78.7" height="0.0" rx="4" fill="#79A7D3" opacity="0.90"/>
<text x="183.4" y="503.0" text-anchor="middle" font-size="10" fill="#333">+0.000</text>
<rect x="240.0" y="413.1" width="78.7" height="96.9" rx="4" fill="#F4A261" opacity="0.90"/>
<text x="279.4" y="406.1" text-anchor="middle" font-size="10" fill="#333">2</text>
<text x="240.0" y="548" text-anchor="middle" font-size="12" fill="#333">order_focused</text>
<rect x="444.0" y="170.9" width="78.7" height="339.1" rx="4" fill="#79A7D3" opacity="0.90"/>
<text x="483.4" y="163.9" text-anchor="middle" font-size="10" fill="#333">7</text>
<rect x="540.0" y="364.7" width="78.7" height="145.3" rx="4" fill="#F4A261" opacity="0.90"/>
<text x="579.4" y="357.7" text-anchor="middle" font-size="10" fill="#333">3</text>
<text x="540.0" y="548" text-anchor="middle" font-size="12" fill="#333">mixed</text>
<rect x="744.0" y="413.1" width="78.7" height="96.9" rx="4" fill="#79A7D3" opacity="0.90"/>
<text x="783.4" y="406.1" text-anchor="middle" font-size="10" fill="#333">2</text>
<rect x="840.0" y="510.0" width="78.7" height="0.0" rx="4" fill="#F4A261" opacity="0.90"/>
<text x="879.4" y="503.0" text-anchor="middle" font-size="10" fill="#333">+0.000</text>
<text x="840.0" y="548" text-anchor="middle" font-size="12" fill="#333">institutional</text>
<rect x="90" y="573" width="14" height="14" rx="3" fill="#79A7D3"/>
<text x="111" y="585" class="legend">Y1 improvement</text>
<rect x="270" y="573" width="14" height="14" rx="3" fill="#F4A261"/>
<text x="291" y="585" class="legend">Y2 order-control</text>
<text x="90" y="602" font-size="11" fill="#666">Y-axis: units</text>
</svg>